HIERARCHY
ROOT Hips
{
	OFFSET 0.00000 0.00000 0.00000
	CHANNELS 6 Xposition Yposition Zposition Zrotation Yrotation Xrotation 
	JOINT LHipJoint
	{
		OFFSET 0 0 0
		CHANNELS 3 Zrotation Yrotation Xrotation
		JOINT LeftHip
		{
			OFFSET 1.59801 -1.77853 0.57028
			CHANNELS 3 Zrotation Yrotation Xrotation
			JOINT LeftKnee
			{
				OFFSET 2.39439 -6.57854 0.00000
				CHANNELS 3 Zrotation Yrotation Xrotation
				JOINT LeftAnkle
				{
					OFFSET 2.69334 -7.39989 0.00000
					CHANNELS 3 Zrotation Yrotation Xrotation
					JOINT LeftToe
					{
						OFFSET 0.09553 -0.26245 1.73747
						CHANNELS 3 Zrotation Yrotation Xrotation
						End Site
						{
							OFFSET 0.00000 -0.00000 0.89391
						}
					}
				}
			}
		}
	}
	JOINT RHipJoint
	{
		OFFSET 0 0 0
		CHANNELS 3 Zrotation Yrotation Xrotation
		JOINT RightHip
		{
			OFFSET -1.54704 -1.77852 0.57028
			CHANNELS 3 Zrotation Yrotation Xrotation
			JOINT RightKnee
			{
				OFFSET -2.40286 -6.60180 0.00000
				CHANNELS 3 Zrotation Yrotation Xrotation
				JOINT RightAnkle
				{
					OFFSET -2.63873 -7.24984 0.00000
					CHANNELS 3 Zrotation Yrotation Xrotation
					JOINT RightToe
					{
						OFFSET -0.15631 -0.42945 1.84436
						CHANNELS 3 Zrotation Yrotation Xrotation
						End Site
						{
							OFFSET -0.00000 -0.00000 0.95734
						}
					}
				}
			}
		}
	}
	JOINT lowerback
	{
		OFFSET 0 0 0
		CHANNELS 3 Zrotation Yrotation Xrotation
		JOINT Chest
		{
			OFFSET -0.00436 1.89866 -0.04018
			CHANNELS 3 Zrotation Yrotation Xrotation
			JOINT Chest2
			{
				OFFSET 0.02031 1.88273 0.09634
				CHANNELS 3 Zrotation Yrotation Xrotation
				JOINT lowerneck
				{
					OFFSET 0 0 0
					CHANNELS 3 Zrotation Yrotation Xrotation
					JOINT Neck
					{
						OFFSET -0.13105 1.89371 0.23083
						CHANNELS 3 Zrotation Yrotation Xrotation
						JOINT Head
						{
							OFFSET 0.17062 1.83990 -0.54062
							CHANNELS 3 Zrotation Yrotation Xrotation
							End Site
							{
								OFFSET 0.04576 1.94782 -0.21839
							}
						}
					}
				}
				JOINT LeftCollar
				{
					OFFSET 0 0 0
					CHANNELS 3 Zrotation Yrotation Xrotation
					JOINT LeftShoulder
					{
						OFFSET 3.12424 1.09204 0.22226
CHANNELS 3 Zrotation Xrotation Yrotation
						JOINT LeftElbow
						{
OFFSET 0 -5.292770 0.000000
CHANNELS 3 Zrotation Xrotation Yrotation
							JOINT LeftWrist
							{
OFFSET 0 -2.852260 0.000000
CHANNELS 3 Zrotation Xrotation Yrotation
								JOINT lhand
								{
									OFFSET 0 0 0
CHANNELS 3 Zrotation Xrotation Yrotation
									JOINT LFingers
									{
OFFSET 0 -0.602100 0.000000
CHANNELS 3 Zrotation Xrotation Yrotation
										End Site
										{
OFFSET 0 -0.485430 0.000000
										}
									}
								}
								JOINT LThumb
								{
OFFSET 0 0.000000 0.000000
CHANNELS 3 Zrotation Xrotation Yrotation
									End Site
									{
OFFSET 0 -0.492840 0.492840
									}
								}
							}
						}
					}
				}
				JOINT RightCollar
				{
					OFFSET 0 0 0
					CHANNELS 3 Zrotation Yrotation Xrotation
					JOINT RightShoulder
					{
						OFFSET -2.91709 1.01504 0.30199
CHANNELS 3 Zrotation Xrotation Yrotation
						JOINT RightElbow
						{
OFFSET 0 -5.133040 0.000000
CHANNELS 3 Zrotation Xrotation Yrotation
							JOINT RightWrist
							{
OFFSET 0 -2.743050 0.000000
CHANNELS 3 Zrotation Xrotation Yrotation
								JOINT rhand
								{
									OFFSET 0 0 0
CHANNELS 3 Zrotation Xrotation Yrotation
									JOINT RFingers
									{
OFFSET 0 -0.767980 0.000000
CHANNELS 3 Zrotation Xrotation Yrotation
										End Site
										{
OFFSET 0 -0.619160 0.000000
										}
									}
								}
								JOINT RThumb
								{
OFFSET 0 0.000000 0.000000
CHANNELS 3 Zrotation Xrotation Yrotation
									End Site
									{
OFFSET 0 -0.628620 0.628620
									}
								}
							}
						}
					}
				}
			}
		}
	}
}
MOTION
Frames: 4
Frame Time: 0.008333333333333333
0.263700 17.101400 1.427100 -3.455200 2.558700 -3.241700 0.000000 0.000000 0.000000 -20.771200 -16.244700 15.049300 0.973300 6.280600 17.600800 1.490300 5.779800 -25.779900 0.436400 -4.238900 -11.749700 0.000000 0.000000 0.000000 24.020500 1.454100 19.845600 0.000000 0.000000 -0.000000 -0.176700 -9.926400 -16.722700 -0.833400 5.823900 -16.274200 -1.868200 0.200600 -12.290400 -0.452900 0.445200 -8.846400 0.621400 0.301000 -2.395900 -20.923900 -10.999900 0.505200 17.351500 -18.291300 22.185600 7.656900 -9.205200 10.596100 -0.000000 0.000000 0.000000 64.104100 -74.354300 35.646200 51.610900 -53.624900 27.466000 45.838500 -0.998800 -32.581900 0.000000 0.000000 0.000000 -7.125000 0.000000 0.000000 23.143400 71.311400 -14.749500 -0.000000 0.000000 0.000000 -87.808200 -66.289200 -65.243900 -53.846300 -54.433700 -29.275200 -48.447300 -11.428900 -3.378400 0.000000 0.000000 0.000000 7.125000 0.000000 -0.000000 -16.210900 24.865400 -8.209000
0.258459 17.091765 1.445735 -3.538527 2.610199 -3.577509 0.000000 0.000000 0.000000 -20.748000 -16.082049 15.399676 0.983713 6.313099 17.695548 1.534686 5.351372 -25.860044 0.329930 -3.686327 -10.196473 0.000000 0.000000 0.000000 24.125182 1.226007 20.223088 0.000000 0.000000 0.000000 -0.183283 -9.878395 -16.752080 -0.865826 5.933255 -16.590817 -1.944772 0.204280 -12.638153 -0.426213 0.468711 -8.629080 0.698419 0.311941 -1.980281 -20.736645 -10.930075 1.073522 16.822153 -18.193320 22.359505 7.478205 -9.214656 10.450496 0.000000 0.000000 0.000000 63.878502 -71.637296 35.572850 52.633387 -54.003847 28.291212 45.853977 -1.316604 -32.026747 0.000000 0.000000 0.000000 -7.125000 0.000000 0.000000 23.006998 70.695696 -14.351323 0.000000 0.000000 0.000000 -87.115303 -63.680588 -64.766997 -54.597806 -54.689391 -29.887530 -49.183715 -10.217218 -2.658080 0.000000 0.000000 0.000000 7.125000 0.000000 0.000000 -16.915843 25.840249 -8.193114
0.253779 17.081122 1.459653 -3.370266 2.692464 -3.911724 0.000000 0.000000 0.000000 -20.988492 -15.846991 15.788267 0.978571 6.297134 17.649059 1.518648 5.654477 -25.915981 0.496715 -4.518466 -12.540128 0.000000 0.000000 0.000000 23.954098 0.988655 20.594745 0.000000 0.000000 0.000000 -0.198134 -9.839399 -16.898968 -0.859821 5.913133 -16.532587 -2.162411 0.247175 -12.705692 -0.612381 0.549372 -8.522449 0.636813 0.354230 -1.834316 -20.489611 -10.808937 1.702228 16.441017 -18.090385 22.643208 7.357899 -9.211545 10.343980 0.000000 0.000000 0.000000 63.749910 -68.921031 35.309610 53.216719 -54.213095 28.763840 45.969665 -1.323572 -32.156134 0.000000 0.000000 0.000000 -7.125000 0.000000 0.000000 23.281594 70.876662 -14.620466 0.000000 0.000000 0.000000 -86.442573 -60.777520 -64.490935 -55.058490 -54.842511 -30.263790 -49.430690 -9.645257 -1.751959 0.000000 0.000000 0.000000 7.125000 0.000000 0.000000 -17.327729 27.145790 -7.851790
0.250835 17.074522 1.473096 -3.475237 2.781216 -4.227297 0.000000 0.000000 0.000000 -20.942207 -15.719396 16.102017 0.989398 6.330941 17.747711 1.521942 5.589343 -25.902121 0.554390 -4.769517 -13.252409 0.000000 0.000000 0.000000 24.062386 0.744700 20.913369 0.000000 0.000000 0.000000 -0.201301 -9.817339 -16.913982 -0.862307 5.921503 -16.556728 -2.169309 0.230216 -12.742730 -0.638087 0.530197 -8.451010 0.612738 0.342928 -1.737966 -20.520883 -10.579984 2.435587 16.391112 -17.892445 22.756510 7.427528 -9.170589 10.200197 0.000000 0.000000 0.000000 62.813433 -66.177085 34.960157 54.108405 -54.523808 29.488604 46.271423 -2.020538 -31.276185 0.000000 0.000000 0.000000 -7.125000 0.000000 0.000000 23.601106 69.982240 -14.366101 0.000000 0.000000 0.000000 -85.436623 -58.085180 -64.254135 -55.548825 -55.002167 -30.665110 -49.383667 -8.333852 -0.576107 0.000000 0.000000 0.000000 7.125000 0.000000 0.000000 -17.602178 28.870847 -7.230491
